<svg width="22" height="22" viewBox="0 0 22 22" fill="none" xmlns="http://www.w3.org/2000/svg">
<path fill-rule="evenodd" clip-rule="evenodd" d="M16.5423 14.5202C16.5637 14.5392 16.5847 14.559 16.6052 14.5795L20.8607 18.835C21.414 19.3882 21.406 20.2771 20.843 20.8204C20.28 21.3637 19.3751 21.3556 18.8218 20.8024L14.5663 16.5469C14.5589 16.5395 14.5516 16.532 14.5445 16.5245C13.0312 17.6336 11.1643 18.2885 9.1444 18.2885C4.09406 18.2885 -4.76851e-05 14.1944 -4.76851e-05 9.14405C-4.76851e-05 4.09371 4.09406 -0.000392918 9.1444 -0.000392918C14.1947 -0.000392918 18.2888 4.09371 18.2888 9.14405C18.2888 11.1533 17.6408 13.0113 16.5423 14.5202ZM2.39995 9.14405C2.39995 5.4192 5.41954 2.39961 9.1444 2.39961C12.8693 2.39961 15.8888 5.4192 15.8888 9.14405C15.8888 12.8689 12.8693 15.8885 9.1444 15.8885C5.41954 15.8885 2.39995 12.8689 2.39995 9.14405Z" fill="white"/>
</svg>
