<?xml version="1.0" encoding="utf-8"?>
<!-- Svg Vector Icons : http://www.onlinewebfonts.com/icon -->
<!DOCTYPE svg PUBLIC "-//W3C//DTD SVG 1.1//EN" "http://www.w3.org/Graphics/SVG/1.1/DTD/svg11.dtd">
<svg version="1.1" xmlns="http://www.w3.org/2000/svg" xmlns:xlink="http://www.w3.org/1999/xlink" x="0px" y="0px" viewBox="0 0 256 256" enable-background="new 0 0 256 256" xml:space="preserve">
<metadata> Svg Vector Icons : http://www.onlinewebfonts.com/icon </metadata>
<g><g><path fill="#000000" d="M150.8,251.7c-1.9,0-3.7-0.6-5.3-1.8l-48.2-38.6c-2-1.6-3.2-4.1-3.2-6.7v-81.8c0-0.3-0.1-0.5-0.3-0.7l-76.4-77c-0.3-0.3-0.6-0.6-0.9-1C12.3,39.5,10,33.8,10,27.7C10,14.8,20.4,4.3,33.3,4.3h189.5c12.8,0,23.3,10.5,23.3,23.4c0,6-2.3,11.7-6.4,16.1c-0.2,0.2-0.5,0.6-0.7,0.8l-79.3,79.9c-0.2,0.2-0.3,0.5-0.3,0.7v118c0,3.3-1.8,6.2-4.8,7.7C153.3,251.5,152,251.7,150.8,251.7L150.8,251.7z"/></g></g>
</svg>