<svg width="16" height="17" viewBox="0 0 16 17" fill="none" xmlns="http://www.w3.org/2000/svg">
<path d="M14.9333 4.00933C14.9325 3.34196 14.667 2.70215 14.1951 2.23025C13.7232 1.75834 13.0834 1.49285 12.416 1.492H11.9616V1.03333C11.9616 0.891885 11.9054 0.756229 11.8054 0.65621C11.7054 0.55619 11.5697 0.5 11.4283 0.5C11.2868 0.5 11.1512 0.55619 11.0511 0.65621C10.9511 0.756229 10.8949 0.891885 10.8949 1.03333V1.492H4.0384V1.03333C4.0384 0.891885 3.98221 0.756229 3.88219 0.65621C3.78217 0.55619 3.64652 0.5 3.50507 0.5C3.36362 0.5 3.22796 0.55619 3.12794 0.65621C3.02792 0.756229 2.97173 0.891885 2.97173 1.03333V1.492H2.51733C1.84995 1.49285 1.21015 1.75834 0.738245 2.23025C0.266337 2.70215 0.000846749 3.34196 0 4.00933V12.916C0.000846749 13.5834 0.266337 14.2232 0.738245 14.6951C1.21015 15.167 1.84995 15.4325 2.51733 15.4333H8.2208C9.06284 16.1188 10.1142 16.4952 11.2 16.5C12.4726 16.4986 13.6927 15.9924 14.5926 15.0926C15.4924 14.1927 15.9986 12.9726 16 11.7C15.9952 10.6142 15.6188 9.56284 14.9333 8.7208V4.00933ZM2.51733 2.55867H2.97173V3.01413C2.97173 3.15558 3.02792 3.29124 3.12794 3.39126C3.22796 3.49128 3.36362 3.54747 3.50507 3.54747C3.64652 3.54747 3.78217 3.49128 3.88219 3.39126C3.98221 3.29124 4.0384 3.15558 4.0384 3.01413V2.55867H10.8949V3.01413C10.8949 3.15558 10.9511 3.29124 11.0511 3.39126C11.1512 3.49128 11.2868 3.54747 11.4283 3.54747C11.5697 3.54747 11.7054 3.49128 11.8054 3.39126C11.9054 3.29124 11.9616 3.15558 11.9616 3.01413V2.55867H12.416C12.8006 2.55923 13.1692 2.71225 13.4412 2.98418C13.7131 3.25611 13.8661 3.62477 13.8667 4.00933V4.4616H1.06667V4.00933C1.06723 3.62477 1.22025 3.25611 1.49218 2.98418C1.76411 2.71225 2.13277 2.55923 2.51733 2.55867ZM1.06667 12.916V5.52827H13.8667V7.7128C12.944 7.0943 11.8353 6.81524 10.7298 6.92328C9.62432 7.03132 8.59061 7.51975 7.80518 8.30518C7.01975 9.09061 6.53132 10.1243 6.42328 11.2298C6.31524 12.3353 6.5943 13.444 7.2128 14.3667H2.51733C2.13277 14.3661 1.76411 14.2131 1.49218 13.9412C1.22025 13.6692 1.06723 13.3006 1.06667 12.916ZM11.2 15.4333C10.4616 15.4333 9.73981 15.2144 9.12587 14.8042C8.51193 14.3939 8.03342 13.8109 7.75085 13.1287C7.46828 12.4465 7.39435 11.6959 7.5384 10.9717C7.68245 10.2475 8.03802 9.58225 8.56013 9.06013C9.08225 8.53802 9.74747 8.18245 10.4717 8.0384C11.1959 7.89435 11.9465 7.96828 12.6287 8.25085C13.3109 8.53342 13.8939 9.01193 14.3042 9.62587C14.7144 10.2398 14.9333 10.9616 14.9333 11.7C14.9322 12.6898 14.5385 13.6387 13.8386 14.3386C13.1387 15.0385 12.1898 15.4322 11.2 15.4333Z" fill="white"/>
<path d="M11.7337 11.4791V9.56654C11.7337 9.42509 11.6775 9.28943 11.5774 9.18941C11.4774 9.08939 11.3418 9.0332 11.2003 9.0332C11.0589 9.0332 10.9232 9.08939 10.8232 9.18941C10.7232 9.28943 10.667 9.42509 10.667 9.56654V11.6999C10.667 11.841 10.723 11.9765 10.8227 12.0764L11.8894 13.1431C11.9906 13.2363 12.1239 13.2869 12.2615 13.2841C12.3991 13.2814 12.5303 13.2255 12.6277 13.1283C12.7251 13.0311 12.7811 12.8999 12.7841 12.7623C12.787 12.6247 12.7367 12.4913 12.6435 12.39L11.7337 11.4791Z" fill="white"/>
</svg>
