<svg width="22" height="22" viewBox="0 0 22 22" fill="none" xmlns="http://www.w3.org/2000/svg">
<path d="M17.3709 13.6291C16.9205 13.1602 16.3773 12.9094 15.8015 12.9094C15.2304 12.9094 14.6825 13.1555 14.2135 13.6245L12.7463 15.0871C12.6255 15.0221 12.5048 14.9617 12.3887 14.9014C12.2216 14.8178 12.0637 14.7389 11.929 14.6553C10.5546 13.7824 9.30561 12.6448 8.10765 11.1728C7.52724 10.4392 7.13721 9.82166 6.85397 9.19482C7.23472 8.84658 7.5876 8.48441 7.93121 8.13616C8.06122 8.00615 8.19123 7.8715 8.32124 7.74149C9.29632 6.7664 9.29632 5.50344 8.32124 4.52836L7.05363 3.26075C6.90969 3.11681 6.76111 2.96822 6.62181 2.81964C6.34321 2.53176 6.05069 2.23459 5.74888 1.956C5.29848 1.51024 4.75987 1.27344 4.19339 1.27344C3.62691 1.27344 3.07901 1.51024 2.61468 1.956C2.61004 1.96064 2.61004 1.96064 2.6054 1.96528L1.02669 3.55792C0.432356 4.15225 0.0933983 4.8766 0.0191063 5.71703C-0.0923317 7.07286 0.306988 8.33582 0.613442 9.16232C1.36565 11.1914 2.48932 13.0719 4.16553 15.0871C6.19927 17.5155 8.64627 19.4332 11.4415 20.7844C12.5094 21.2905 13.9349 21.8895 15.5276 21.9916C15.6251 21.9963 15.7272 22.0009 15.8201 22.0009C16.8927 22.0009 17.7935 21.6155 18.4992 20.8494C18.5039 20.8401 18.5132 20.8355 18.5178 20.8262C18.7593 20.5336 19.0379 20.269 19.3304 19.9857C19.53 19.7954 19.7343 19.5957 19.934 19.3868C20.3937 18.9085 20.6351 18.3513 20.6351 17.7802C20.6351 17.2044 20.389 16.6519 19.9201 16.1876L17.3709 13.6291ZM19.0332 18.5185C19.0286 18.5185 19.0286 18.5231 19.0332 18.5185C18.8521 18.7135 18.6664 18.8899 18.4667 19.0849C18.1649 19.3728 17.8585 19.6746 17.5706 20.0136C17.1016 20.5151 16.5491 20.7519 15.8247 20.7519C15.7551 20.7519 15.6808 20.7519 15.6111 20.7472C14.2321 20.659 12.9506 20.1204 11.9894 19.6607C9.36133 18.3885 7.05363 16.5822 5.13597 14.2931C3.55262 12.3847 2.49396 10.6203 1.79283 8.72585C1.36101 7.56969 1.20314 6.66889 1.27278 5.81918C1.31922 5.27592 1.52816 4.82552 1.91355 4.44013L3.4969 2.85679C3.72442 2.6432 3.96587 2.52712 4.20268 2.52712C4.4952 2.52712 4.73201 2.70356 4.88059 2.85214C4.88523 2.85679 4.88988 2.86143 4.89452 2.86607C5.17776 3.13074 5.44707 3.40469 5.7303 3.69721C5.87425 3.8458 6.02283 3.99438 6.17141 4.14761L7.43902 5.41522C7.93121 5.9074 7.93121 6.36244 7.43902 6.85462C7.30437 6.98928 7.17436 7.12393 7.0397 7.25394C6.64967 7.65326 6.27821 8.02472 5.87425 8.3869C5.86496 8.39618 5.85567 8.40083 5.85103 8.41011C5.45171 8.80943 5.526 9.19947 5.60958 9.46413C5.61422 9.47806 5.61887 9.49199 5.62351 9.50592C5.95318 10.3046 6.41751 11.0568 7.12328 11.9529L7.12792 11.9576C8.40946 13.5363 9.76065 14.7667 11.2511 15.7093C11.4415 15.83 11.6365 15.9275 11.8222 16.0204C11.9894 16.104 12.1473 16.1829 12.2819 16.2665C12.3005 16.2758 12.3191 16.2897 12.3377 16.299C12.4955 16.3779 12.6441 16.4151 12.7973 16.4151C13.1827 16.4151 13.4242 16.1736 13.5031 16.0947L15.0911 14.5067C15.249 14.3488 15.4997 14.1585 15.7922 14.1585C16.0801 14.1585 16.3169 14.3395 16.4609 14.4974C16.4655 14.5021 16.4655 14.5021 16.4701 14.5067L19.0286 17.0651C19.5068 17.5387 19.5068 18.0263 19.0332 18.5185Z" fill="white"/>
<path d="M11.8734 5.23178C13.0899 5.43608 14.195 6.01184 15.0772 6.89406C15.9595 7.77628 16.5306 8.88137 16.7395 10.0979C16.7906 10.4044 17.0553 10.6179 17.3571 10.6179C17.3942 10.6179 17.4267 10.6133 17.4639 10.6087C17.8075 10.5529 18.035 10.2279 17.9793 9.88432C17.7285 8.41241 17.0321 7.07051 15.9687 6.0072C14.9054 4.9439 13.5635 4.24741 12.0916 3.99667C11.748 3.94095 11.4276 4.16847 11.3673 4.50743C11.3069 4.84639 11.5298 5.17606 11.8734 5.23178Z" fill="white"/>
<path d="M21.9584 9.70466C21.5451 7.28089 20.4029 5.07534 18.6477 3.32019C16.8926 1.56505 14.687 0.422806 12.2632 0.0095565C11.9243 -0.0508058 11.6039 0.181357 11.5435 0.520314C11.4878 0.863915 11.7153 1.1843 12.0589 1.24466C14.2227 1.61148 16.1961 2.63764 17.7655 4.20241C19.3349 5.77183 20.3564 7.74521 20.7233 9.90897C20.7743 10.2154 21.039 10.429 21.3408 10.429C21.3779 10.429 21.4105 10.4244 21.4476 10.4197C21.7866 10.3686 22.0187 10.0436 21.9584 9.70466Z" fill="white"/>
</svg>
