<svg width="158" height="64" viewBox="0 0 158 64" fill="none" xmlns="http://www.w3.org/2000/svg">
<path fill-rule="evenodd" clip-rule="evenodd" d="M3.59172 7.10758C3.54994 8.13445 4.97158 12.4468 5.26004 13.9925L7.09481 20.8767C7.47261 22.0342 7.67227 22.9711 7.98361 24.1879C8.12711 24.7487 8.35344 25.1682 8.4612 25.7603C8.61522 26.6071 8.73687 26.9406 8.89028 27.6849L10.7569 34.4893C11.979 39.1188 13.1688 43.6008 14.3696 48.2215L18.0158 61.9413C18.7764 62.0378 20.5845 61.2781 21.4656 60.966C22.6678 60.54 23.8074 60.2656 24.906 59.8692C26.0652 59.4509 27.202 59.245 28.3909 58.8299C29.4963 58.444 30.7751 58.1747 31.8713 57.807C33.9334 57.1154 36.7999 56.4507 39.0142 55.9387C52.3601 52.8532 64.1221 50.7755 78.4976 49.7627C100.323 48.2249 120.307 49.6242 141.492 53.6815C142.689 53.9107 144.261 54.4008 145.53 54.4031L153.801 24.5961C154.134 23.5843 156.496 15.2232 156.364 14.5551L148.197 12.0111C137.07 8.50318 124.682 6.04326 112.992 4.3992C90.8161 1.28044 63.5844 0.501406 41.4946 1.93048C34.813 2.36278 28.3468 3.0913 21.9205 3.92972C18.7268 4.34642 15.7721 4.93405 12.7448 5.3924C9.65997 5.85948 6.41255 6.66669 3.59172 7.10758Z" fill="#BF272E"/>
<path fill-rule="evenodd" clip-rule="evenodd" d="M3.59333 7.10803C6.41415 6.66714 9.66157 5.85992 12.7464 5.39284C15.7737 4.93449 18.7284 4.34686 21.9221 3.93016C28.3484 3.09174 34.8146 2.36323 41.4962 1.93092C63.586 0.501853 90.8177 1.28089 112.994 4.39965C124.684 6.0437 137.072 8.50363 148.199 12.0115L156.366 14.5556C156.498 15.2236 154.135 23.5848 153.803 24.5965L145.531 54.4036C144.262 54.4012 142.69 53.9111 141.493 53.6819C120.309 49.6247 100.324 48.2253 78.4992 49.7631C64.1237 50.776 52.3617 52.8536 39.0158 55.9392C36.8015 56.4511 33.935 57.1159 31.8729 57.8074C30.7767 58.1751 29.4979 58.4444 28.3925 58.8304C27.2036 59.2454 26.0668 59.4513 24.9076 59.8696C23.8091 60.2661 22.6694 60.5404 21.4672 60.9664C20.5861 61.2786 18.778 62.0383 18.0174 61.9417L14.3712 48.2219C13.1704 43.6013 11.9806 39.1192 10.7585 34.4897L8.89188 27.6853C8.73848 26.9411 8.61683 26.6075 8.46281 25.7607C8.35504 25.1686 8.12872 24.7492 7.98522 24.1884C7.67388 22.9715 7.47422 22.0346 7.09642 20.8772L5.26164 13.9929C4.97319 12.4473 3.55154 8.1349 3.59333 7.10803ZM2.00007 6.256L4.92254 17.4475C4.82831 17.4897 4.77367 17.4807 4.75381 17.5357L4.30838 17.7728C4.0336 17.8916 3.90769 17.9177 3.64934 18.0138L0 19.4196C0.024811 20.4293 6.70206 44.9131 7.29649 47.1508L9.7435 56.4555C11.1726 56.469 13.4199 55.5213 15.0359 55.3676L17.2212 63.6153L30.7422 59.3709C48.1806 54.3855 65.9244 51.4855 84.382 50.6244C95.5616 50.1029 118.998 55.1317 130.262 58.25C131.467 58.5836 136.662 60.2587 137.353 60.2007L138.722 54.4558C141.131 54.5409 144.012 55.7382 146.406 55.8916L158 14.0165C156.904 13.297 150.715 11.5208 148.981 10.9563C149.071 9.57339 150.377 5.86466 150.21 4.92274C144.355 4.07917 138.829 3.10982 132.853 2.4246C120.721 1.03361 107.215 0.427898 94.9218 0.70398C89.7438 0.820406 90.3396 0.852022 85.1317 0.585081C68.4803 -0.268458 53.5184 -0.253608 36.8244 1.06687C30.8728 1.53759 24.7552 2.26095 18.9146 3.16817C15.2537 3.73683 5.10701 5.34088 2.00007 6.256Z" fill="#3B3937"/>
<path fill-rule="evenodd" clip-rule="evenodd" d="M48.7057 45.3086C49.0926 45.3086 49.406 45.622 49.406 46.0085C49.406 46.3949 49.0926 46.7084 48.7057 46.7084C48.3193 46.7084 48.0059 46.3949 48.0059 46.0085C48.0059 45.622 48.3193 45.3086 48.7057 45.3086Z" fill="#FEFEFE"/>
<path fill-rule="evenodd" clip-rule="evenodd" d="M104.283 43.7227C104.67 43.7227 104.983 44.0361 104.983 44.4225C104.983 44.809 104.67 45.1224 104.283 45.1224C103.896 45.1224 103.583 44.809 103.583 44.4225C103.583 44.0361 103.896 43.7227 104.283 43.7227Z" fill="#FEFEFE"/>
<path fill-rule="evenodd" clip-rule="evenodd" d="M77.6514 30.734L94.1199 31.3523C94.092 34.5681 93.5332 37.2778 98.7892 37.1472C99.0467 35.4177 98.9939 32.8067 99.0711 30.9944C99.2072 27.7966 97.4703 27.6216 96.5139 27.0081L97.1497 9.27996L92.3366 9.08669C92.0181 9.95377 91.5863 24.729 91.573 26.8242L82.7987 26.5266C82.6515 25.4836 83.0848 17.1829 83.1527 15.4159C83.269 12.393 84.2324 8.11143 78.4984 8.59989L77.6514 30.734Z" fill="white"/>
<path fill-rule="evenodd" clip-rule="evenodd" d="M50.3262 32.1932C56.1115 31.9683 55.4286 31.6235 57.4958 25.479L60.8212 15.5645C60.9392 15.3653 60.9066 15.4148 61.0354 15.2856L63.9234 21.1031C60.9605 21.4066 59.8848 21.8149 59.0598 25.8179L66.0844 25.3932L68.8333 30.986L74.0348 30.6717C73.8536 29.8676 69.3884 21.3939 68.6334 19.9574C67.7796 18.3325 63.5586 10.2697 63.1644 9.18611C62.0048 9.15016 59.9369 9.27092 58.7736 9.40494C57.9864 9.49566 58.0834 9.81415 57.8009 10.6339C57.6038 11.2062 57.4258 11.7216 57.2313 12.2814C56.4477 14.5357 55.6948 16.6607 54.9044 18.9136C54.1374 21.1003 53.382 23.249 52.6332 25.4121C52.0056 27.2248 50.6394 30.5046 50.3262 32.1932Z" fill="white"/>
<path fill-rule="evenodd" clip-rule="evenodd" d="M32.0391 12.9821C32.0505 14.4267 32.5915 16.9899 32.8275 18.5299L35.1193 33.5335C35.1801 33.9652 35.2162 34.4279 35.4354 34.7731C40.634 34.4742 39.7841 31.5354 39.1399 27.2913C38.8643 25.4757 37.4499 17.7743 37.6048 16.5079C38.9378 16.354 41.5195 15.7569 42.6588 15.8111C44.2639 15.8874 45.2549 17.6224 44.4936 19.2353C43.7652 20.7782 42.4873 20.7784 41.4735 21.9544C40.1846 23.4496 40.7993 24.6799 41.2908 26.4531C43.3382 26.2402 46.6483 24.3185 48.1744 22.6237C50.9267 19.5668 51.2059 9.98305 41.4326 11.4494C39.8305 11.6898 32.9384 12.5125 32.0391 12.9821Z" fill="white"/>
<path fill-rule="evenodd" clip-rule="evenodd" d="M78.4975 8.60009C84.2315 8.11164 83.268 12.3932 83.1518 15.4161C83.0839 17.1831 82.6506 25.4838 82.7978 26.5268L91.5721 26.8244C91.5854 24.7292 92.0172 9.95397 92.3357 9.08689L97.1488 9.28016L96.513 27.0083C97.4694 27.6218 99.2062 27.7968 99.0702 30.9946C98.993 32.8069 99.0458 35.4179 98.7882 37.1474C93.5323 37.278 94.0911 34.5683 94.119 31.3525L77.6505 30.7342L78.4975 8.60009ZM76.4346 32.2797C78.8666 32.5277 88.4382 32.8408 91.5247 32.8869C92.0642 32.8949 92.1902 32.794 92.5022 33.0397C92.8899 33.3922 92.1436 38.4102 96.6058 38.741L98.8823 38.8603C99.3411 38.8342 99.476 38.81 99.6102 38.6372C99.8572 38.1596 99.9118 32.8543 99.9375 31.9046C100.009 29.2527 99.5476 27.9661 97.5662 26.8341C97.357 25.9764 97.6254 18.9259 97.7453 17.7531L98.0144 8.65329L91.7636 8.36978C91.1147 8.32978 91.1643 8.33625 91.005 8.51364C90.6839 8.99219 90.3299 24.0002 90.2488 26.0467L83.8642 25.9138L84.0617 19.8266C84.2226 17.8894 84.2575 15.6719 84.3021 13.7387C84.3571 11.3562 84.1764 10.1081 82.6381 8.85941C81.2918 7.76656 78.0882 7.64731 77.2233 7.99205C77.1262 12.0804 76.9053 15.9898 76.8818 20.2296C76.871 22.182 76.7026 24.1837 76.6779 26.2551C76.6555 28.1212 76.2887 30.3646 76.4346 32.2797Z" fill="#3B3937"/>
<path fill-rule="evenodd" clip-rule="evenodd" d="M13.3301 17.2848L18.3885 38.7961C20.1481 38.9708 21.8908 37.6936 22.3332 36.4405C23.089 34.3001 19.34 23.5617 19.1339 20.4429C21.1826 19.8531 23.3325 19.4797 25.4202 18.9309C27.8069 18.3036 28.3553 16.5871 27.7217 13.9395L13.3301 17.2848Z" fill="white"/>
<path fill-rule="evenodd" clip-rule="evenodd" d="M60.6243 21.0998C60.6999 20.3608 60.8817 19.5052 61.3991 19.0709C61.7529 19.4383 62.0671 19.9006 62.139 20.587L60.6243 21.0998ZM50.3272 32.1929C50.6404 30.5044 52.0067 27.2245 52.6342 25.4118C53.3831 23.2488 54.1385 21.1 54.9055 18.9133C55.6958 16.6605 56.4487 14.5354 57.2323 12.2812C57.4269 11.7213 57.6049 11.2059 57.802 10.6337C58.0845 9.81389 57.9874 9.4954 58.7747 9.40468C59.938 9.27066 62.0059 9.1499 63.1654 9.18585C63.5597 10.2694 67.7806 18.3322 68.6345 19.9571C69.3895 21.3936 73.8547 29.8673 74.0359 30.6715L68.8344 30.9857L66.0855 25.393L59.0608 25.8177C59.8859 21.8146 60.9615 21.4064 63.9245 21.1028L61.0364 15.2854C60.9077 15.4146 60.9402 15.3651 60.8223 15.5642L57.4969 25.4788C55.4296 31.6233 56.1126 31.968 50.3272 32.1929ZM48.9736 33.9187C50.0365 33.989 51.7397 33.8278 52.7255 33.7301C54.402 33.564 54.6268 33.6209 55.7413 32.8053C58.0979 31.0806 57.1983 29.6165 58.4294 27.5973C58.5417 27.5796 64.8993 27.0032 65.423 27.3247C65.6952 27.4919 65.814 27.939 66.1441 28.5928L68.1388 32.6636L75.8963 32.2188L66.9689 14.4711C66.4439 13.5032 66.0104 12.4684 65.4526 11.4209C65.0177 10.6045 64.2824 8.9475 63.8709 8.4809C62.2543 8.41774 60.6584 8.66592 59.0547 8.73114C58.1263 8.76887 57.5432 8.64681 57.2571 9.48626L54.0362 18.9407C53.234 21.4924 52.2542 23.979 51.476 26.3783C50.9944 27.8627 49.0186 32.7256 48.9736 33.9187Z" fill="#3B3937"/>
<path fill-rule="evenodd" clip-rule="evenodd" d="M39.3439 18.0065C40.439 17.7729 42.4176 17.4628 43.488 17.5452C44.5077 18.9918 43.4709 19.816 42.5187 20.4457C40.8683 21.5369 41.0777 21.4434 40.1158 23.0101C39.922 22.6648 39.2786 18.5125 39.3439 18.0065ZM32.0401 12.982C32.9395 12.5124 39.8315 11.6897 41.4336 11.4493C51.207 9.98299 50.9278 19.5668 48.1754 22.6236C46.6494 24.3184 43.3393 26.2401 41.2918 26.453C40.8003 24.6799 40.1856 23.4495 41.4745 21.9543C42.4883 20.7783 43.7663 20.7781 44.4946 19.2352C45.2559 17.6223 44.2649 15.8873 42.6599 15.811C41.5205 15.7569 38.9388 16.354 37.6059 16.5079C37.451 17.7742 38.8653 25.4756 39.1409 27.2912C39.7852 31.5353 40.635 34.4741 35.4365 34.773C35.2172 34.4278 35.1811 33.9652 35.1204 33.5334L32.8286 18.5299C32.5925 16.9899 32.0515 14.4266 32.0401 12.982ZM34.762 36.5305C36.6473 36.618 38.9672 36.1412 40.2015 34.7283C42.0457 32.6171 40.9204 31.3127 40.9501 28.5871L41.3075 28.3975C43.1683 27.554 45.1572 27.4019 47.6322 25.4867C49.4101 24.1109 51.0929 22.1085 51.225 19.4802C51.5698 12.6237 47.6584 9.688 41.1995 10.8195C38.5964 11.2756 35.4541 11.8404 32.8138 12.1639C30.7211 12.4204 31.078 12.0578 31.524 15.1287C31.7368 16.5935 32.0378 17.8784 32.1939 19.2999C32.4802 21.9069 33.0191 25.2581 33.4963 27.7688L34.762 36.5305Z" fill="#3B3937"/>
<path fill-rule="evenodd" clip-rule="evenodd" d="M27.7215 13.9393C28.3551 16.5869 27.8067 18.3034 25.4201 18.9307C23.3324 19.4795 21.1825 19.8529 19.1338 20.4427C19.3398 23.5615 23.0889 34.2999 22.3331 36.4403C21.8906 37.6934 20.148 38.9706 18.3883 38.7959L13.3299 17.2846L27.7215 13.9393ZM12.7017 16.8996C12.6417 18.1209 13.7028 21.4672 13.9707 22.7799C14.9303 27.4841 17.5217 36.8227 18.1452 40.5966C19.5599 40.6674 22.0142 40.0724 23.1975 38.7487C24.5149 37.2751 24.3788 35.4136 23.8247 33.2687C23.4359 31.7629 21.2394 22.7144 21.3091 21.8242C22.5729 21.0863 26.7859 20.8677 28.091 19.7073C30.092 17.9283 30.1033 15.6411 29.0806 12.9824C27.9981 13.0503 26.2182 13.6076 25.1028 13.9032L16.8587 15.8884C15.8714 16.1439 13.4027 16.5574 12.7017 16.8996Z" fill="#3B3937"/>
<path fill-rule="evenodd" clip-rule="evenodd" d="M39.3445 18.0071C39.2792 18.5131 39.9226 22.6654 40.1164 23.0106C41.0783 21.444 40.8689 21.5375 42.5193 20.4462C43.4715 19.8166 44.5083 18.9924 43.4886 17.5458C42.4182 17.4633 40.4396 17.7735 39.3445 18.0071Z" fill="#BC1E2C"/>
<path fill-rule="evenodd" clip-rule="evenodd" d="M138.798 24.7484C138.394 24.5483 138.07 24.4346 137.68 24.2141C135.728 23.113 134.448 20.6508 137.571 21.2289C138.198 21.3451 139.954 21.5856 140.35 21.7305C140.464 22.4311 140.007 24.8845 139.799 25.3877C139.563 25.3026 139.248 24.971 138.798 24.7484ZM133.653 27.0151C128.934 24.2653 129.1 17.8448 133.007 15.6547C136.269 13.8266 144.343 16.3445 148.169 16.8401L144.243 38.6575L139.386 37.8063C139.314 36.3616 140.556 30.8762 140.879 29.0567C141.351 26.3968 142.195 23.0063 142.408 20.4287C141.805 20.104 138.165 19.5318 137.61 19.4634C135.621 19.2186 134.699 20.634 135.283 22.4077C135.704 23.6897 137.192 24.512 138.339 25.0806C140.089 25.9479 140.378 27.305 139.396 28.5191L136.531 31.3756C134.326 33.46 132.469 36.2868 130.038 36.1006C129.16 36.0334 126.262 35.5136 125.403 35.2606C125.516 34.9125 130.685 30.0661 131.623 29.1872C132.265 28.5861 133.401 27.8246 133.653 27.0151ZM131.341 27.7517C131.098 28.2782 124.304 34.6226 123.087 35.7452C122.743 36.0618 122.682 36.059 122.683 36.5259L127.634 37.4705C132.262 38.1257 132.105 37.4275 135.611 33.8828C136.195 33.2923 138.292 31.0322 138.806 30.8723C138.751 33.1752 137.346 37.0525 137.489 39.2041C137.938 39.4266 143.765 40.4422 144.433 40.3973C144.827 39.7294 147.117 25.4895 147.736 22.4857C147.993 21.2389 148.806 17.492 148.696 16.387C145.993 16.0146 143.235 15.2456 140.566 14.896C137.185 14.4534 132.418 12.9308 129.672 17.3068C127.809 20.2762 128.051 23.8275 130.178 26.3622C130.484 26.7268 131.162 27.377 131.341 27.7517Z" fill="#3B3937"/>
<path fill-rule="evenodd" clip-rule="evenodd" d="M133.651 27.0149C133.399 27.8244 132.263 28.5859 131.621 29.1871C130.683 30.0659 125.514 34.9124 125.401 35.2604C126.26 35.5134 129.158 36.0332 130.036 36.1005C132.467 36.2866 134.324 33.4598 136.529 31.3754L139.394 28.519C140.376 27.3048 140.087 25.9477 138.337 25.0804C137.19 24.5118 135.702 23.6895 135.281 22.4075C134.697 20.6338 135.62 19.2184 137.608 19.4632C138.163 19.5316 141.803 20.1038 142.406 20.4285C142.193 23.0061 141.349 26.3966 140.877 29.0565C140.554 30.876 139.312 36.3614 139.384 37.8062L144.241 38.6574L148.167 16.8399C144.341 16.3443 136.267 13.8265 133.005 15.6545C129.098 17.8446 128.932 24.2651 133.651 27.0149Z" fill="white"/>
<path fill-rule="evenodd" clip-rule="evenodd" d="M139.797 25.3871C140.006 24.8839 140.463 22.4305 140.349 21.7299C139.953 21.585 138.196 21.3444 137.569 21.2283C134.447 20.6501 135.727 23.1124 137.678 24.2134C138.069 24.434 138.393 24.5477 138.797 24.7478C139.247 24.9704 139.562 25.302 139.797 25.3871Z" fill="#BC1E2C"/>
<path fill-rule="evenodd" clip-rule="evenodd" d="M60.624 21.1007L62.1392 20.5878C62.0672 19.9012 61.7529 19.4388 61.3991 19.0713C60.8815 19.5057 60.6996 20.3615 60.624 21.1007Z" fill="#BC1E2C"/>
<path fill-rule="evenodd" clip-rule="evenodd" d="M109.086 22.6747C109.133 22.6528 109.179 22.6303 109.225 22.6084C111.793 21.3851 114.455 19.7689 117.123 18.7671L117.565 15.3801L117.573 15.3454C118.363 11.7854 120.757 10.9234 124.233 11.8266L124.929 12.0071L121.586 36.5659L114.918 35.6755L116.071 26.8335C113.445 28.1126 110.857 29.4759 108.182 30.6557C108.142 30.8352 108.102 31.0143 108.082 31.1817L108.078 31.2168L108.071 31.251C107.323 34.82 104.939 35.7101 101.452 34.8483L100.755 34.6758L103.8 10.0791L110.478 10.8908L109.086 22.6747Z" fill="#3B3937"/>
<path fill-rule="evenodd" clip-rule="evenodd" d="M105.163 10.8848L110.071 11.4883L108.641 23.7473C109.102 23.4593 109.601 23.2137 110.075 22.9851C112.227 21.9492 115.852 19.8788 118.101 19.0913L118.585 15.3338C119.059 13.1738 120.221 11.4727 124.064 12.4827L121.029 35.0568L116.129 34.3946L117.338 25.0112C117.027 25.1953 116.675 25.3824 116.28 25.5761C113.541 26.9163 110.805 28.3852 108.034 29.5978C107.978 29.9524 107.866 30.3905 107.844 30.5775C107.396 32.7428 106.254 34.4576 102.399 33.494L105.163 10.8848Z" fill="#FEFEFE"/>
<path d="M52.5334 46.8936L51.8646 46.9832L51.4414 43.8255L52.1231 43.7341L53.3793 44.9013L54.2905 43.4437L54.9721 43.3523L55.3953 46.5101L54.7265 46.5997L54.43 44.3874L53.6213 45.6807L53.3512 45.7169L52.2369 44.6813L52.5334 46.8936ZM57.2547 46.3179L56.4537 46.3943L57.2339 45.0748C57.0046 45.0402 56.8208 44.947 56.6825 44.7951C56.5442 44.6431 56.4635 44.4466 56.4405 44.2055C56.4114 43.8997 56.4904 43.6466 56.6776 43.4462C56.865 43.2459 57.1524 43.1272 57.54 43.0902L59.2065 42.9312L59.509 46.1028L58.8114 46.1694L58.7072 45.0778L57.9386 45.1511L57.2547 46.3179ZM57.7817 44.5989L58.6536 44.5158L58.5624 43.5598L57.6905 43.643C57.5053 43.6607 57.3661 43.7162 57.2729 43.8099C57.1797 43.9035 57.1404 44.0257 57.1547 44.1764C57.1691 44.3271 57.2308 44.4396 57.3401 44.514C57.4493 44.5883 57.5965 44.6166 57.7817 44.5989ZM62.3324 45.9259C61.8536 45.9628 61.436 45.8367 61.0798 45.5473C60.7231 45.2538 60.5259 44.8633 60.4884 44.3758C60.4509 43.8885 60.5862 43.4768 60.8945 43.1407C61.2069 42.8042 61.6026 42.6176 62.0813 42.5807C62.4437 42.5528 62.7684 42.6015 63.0557 42.727L63.102 43.3286C62.8024 43.2129 62.5125 43.1658 62.2321 43.1874C61.913 43.2119 61.6532 43.3317 61.4528 43.5468C61.2528 43.766 61.1644 44.0266 61.1877 44.3286C61.2112 44.6348 61.3387 44.8809 61.5699 45.067C61.8009 45.2489 62.0759 45.3275 62.395 45.3028C62.7358 45.2767 63.0315 45.1736 63.2824 44.9938L63.3282 45.589C63.0395 45.7848 62.7076 45.8971 62.3324 45.9259ZM65.9626 45.0283C66.2563 45.011 66.4986 44.8947 66.6895 44.6798C66.8764 44.4694 66.9608 44.211 66.9426 43.9044C66.9248 43.602 66.8107 43.3574 66.6002 43.1705C66.3852 42.9796 66.1309 42.8929 65.8373 42.9102C65.5393 42.9279 65.2949 43.0442 65.104 43.2591C64.9171 43.4695 64.8326 43.7259 64.8505 44.0281C64.8686 44.3347 64.9828 44.5815 65.1933 44.7683C65.4083 44.9593 65.6647 45.0459 65.9626 45.0283ZM65.9991 45.6437C65.4895 45.6738 65.0611 45.5367 64.7137 45.2323C64.3663 44.9278 64.1787 44.5402 64.1509 44.0695C64.1233 43.6031 64.264 43.1983 64.573 42.8551C64.8821 42.5117 65.2914 42.325 65.8009 42.2949C66.3018 42.2653 66.7281 42.4025 67.0798 42.7067C67.4272 43.0112 67.6147 43.3965 67.6422 43.8629C67.6698 44.3292 67.5292 44.7363 67.2205 45.0839C66.9071 45.4275 66.5 45.614 65.9991 45.6437ZM69.5437 45.3495L68.8441 45.3909L68.656 42.2104L69.3555 42.169L69.4268 43.3739L70.6121 42.0947L71.5059 42.0418L70.0811 43.5562L71.9209 45.2088L70.9622 45.2655L69.4586 43.9115L69.5437 45.3495ZM74.1498 44.6144C74.4437 44.6021 74.688 44.4901 74.8826 44.2785C75.0731 44.0714 75.1619 43.8143 75.1491 43.5075C75.1364 43.2049 75.0265 42.9584 74.8193 42.7679C74.6077 42.5733 74.3549 42.4822 74.061 42.4945C73.7628 42.507 73.5164 42.619 73.3218 42.8306C73.1313 43.0378 73.0424 43.2926 73.0551 43.5952C73.0679 43.9021 73.1779 44.1508 73.3851 44.3412C73.5967 44.5358 73.8516 44.6269 74.1498 44.6144ZM74.1757 45.2303C73.6656 45.2516 73.2397 45.1071 72.8975 44.7968C72.5555 44.4864 72.3747 44.0956 72.3549 43.6245C72.3353 43.1577 72.483 42.7554 72.7979 42.4175C73.1128 42.0796 73.5252 41.9 74.0352 41.8786C74.5366 41.8576 74.9604 42.0022 75.3069 42.3124C75.6489 42.6227 75.8297 43.0113 75.8493 43.4781C75.8688 43.9448 75.7213 44.3494 75.4065 44.6916C75.0873 45.0297 74.677 45.2092 74.1757 45.2303ZM77.7006 45.0457L77.0259 45.0517L76.9976 41.8658L77.6854 41.8598L78.7872 43.1738L79.872 41.8404L80.5597 41.8343L80.588 45.0202L79.9132 45.0261L79.8935 42.7941L78.9305 43.9771L78.6581 43.9796L77.6808 42.8137L77.7006 45.0457ZM83.4813 45.0941C82.932 45.0903 82.505 44.8991 82.2005 44.5207C81.9003 44.1379 81.7524 43.6264 81.7568 42.9863C81.7617 42.2811 81.9299 41.7373 82.2612 41.3545C82.414 41.1739 82.6226 41.0196 82.8874 40.8916C83.1609 40.7594 83.4384 40.6597 83.7201 40.5924C84.0104 40.5209 84.3678 40.452 84.7922 40.3857L84.7876 41.0346C84.0947 41.1596 83.6571 41.2538 83.475 41.3175C82.9894 41.4785 82.6718 41.7337 82.5223 42.0831C82.4564 42.2297 82.4162 42.409 82.4018 42.6208C82.5373 42.4271 82.7189 42.2747 82.9467 42.1639C83.1746 42.053 83.4248 41.9985 83.6974 42.0003C84.1083 42.0032 84.4513 42.1396 84.7263 42.4098C84.9969 42.6798 85.1308 43.0312 85.1278 43.4637C85.1244 43.9526 84.9638 44.3473 84.6459 44.6479C84.3367 44.9486 83.9485 45.0973 83.4813 45.0941ZM83.4856 44.4776C83.7582 44.4795 83.9815 44.3903 84.1558 44.2097C84.3344 44.025 84.4247 43.792 84.4266 43.5108C84.4285 43.2426 84.3445 43.0247 84.1748 42.8569C84.0052 42.6892 83.7883 42.6045 83.5245 42.6026C83.3082 42.6012 83.1012 42.6603 82.9036 42.78C82.7059 42.8998 82.5524 43.0523 82.443 43.2376C82.4575 43.627 82.5549 43.9305 82.7352 44.148C82.9153 44.3656 83.1655 44.4754 83.4856 44.4776ZM86.8818 45.0363L86.2266 45.0217L86.2975 41.8365L86.9981 41.8521L86.95 44.0123L88.7172 41.8903L89.3724 41.9049L89.3014 45.0901L88.6009 45.0745L88.6491 42.9078L86.8818 45.0363ZM91.3381 45.1426L90.6379 45.1165L90.7562 41.9327L91.4565 41.9588L91.4102 43.2037L93.0247 43.2637L93.0711 42.0188L93.7714 42.0448L93.6531 45.2286L92.9527 45.2026L93.0019 43.8798L91.3873 43.8198L91.3381 45.1426ZM98.0042 44.8873C98.0733 44.8908 98.1368 44.8789 98.1945 44.8516L98.1671 45.383C98.0684 45.4472 97.9306 45.4747 97.7535 45.4656C97.3906 45.4468 97.1759 45.2842 97.1094 44.9775C96.803 45.2909 96.4036 45.4349 95.9111 45.4094C95.5698 45.3918 95.2896 45.2821 95.0704 45.0801C94.8554 44.8828 94.7566 44.6156 94.7739 44.2787C94.7914 43.9417 94.9279 43.6888 95.1835 43.5201C95.435 43.3468 95.7422 43.2696 96.1051 43.2884C96.4895 43.3082 96.8245 43.4077 97.1098 43.5871L97.1188 43.4121C97.1426 42.9499 96.8436 42.7027 96.2214 42.6705C95.8586 42.6519 95.5188 42.7296 95.2023 42.9038L95.2341 42.2882C95.5588 42.1231 95.9502 42.0523 96.4081 42.076C96.8574 42.0991 97.2093 42.2246 97.464 42.4521C97.7186 42.6797 97.836 42.9857 97.8161 43.3701L97.7549 44.556C97.7498 44.6554 97.7706 44.7345 97.8174 44.7932C97.8642 44.8519 97.9265 44.8832 98.0042 44.8873ZM97.0636 44.4813L97.0836 44.0925C96.8236 43.9275 96.5445 43.8373 96.2465 43.8219C96.0132 43.8099 95.8284 43.8436 95.6922 43.9232C95.556 44.0028 95.4838 44.1204 95.4758 44.2759C95.4673 44.4401 95.5225 44.5686 95.6411 44.6613C95.7598 44.7541 95.9249 44.8059 96.1366 44.8168C96.3094 44.8257 96.4797 44.7988 96.6476 44.736C96.8155 44.6732 96.9541 44.5883 97.0636 44.4813ZM100.496 45.5793L99.7966 45.5334L99.9652 42.9694L98.8904 42.8987L98.9308 42.2836L101.773 42.4706L101.733 43.0856L100.665 43.0154L100.496 45.5793Z" fill="#FEFEFE"/>
</svg>
